<?xml version="1.0" standalone="no"?>
<!DOCTYPE svg PUBLIC "-//W3C//DTD SVG 20010904//EN"
 "http://www.w3.org/TR/2001/REC-SVG-20010904/DTD/svg10.dtd">
<svg version="1.0" xmlns="http://www.w3.org/2000/svg"
 width="512.000000pt" height="512.000000pt" viewBox="0 0 512.000000 512.000000"
 preserveAspectRatio="xMidYMid meet">

<g transform="translate(0.000000,512.000000) scale(0.100000,-0.100000)"
fill="#000000" stroke="none">
<path d="M1231 3165 c-63 -46 -82 -82 -38 -71 30 7 52 -29 44 -71 -3 -16 1
-39 10 -54 16 -26 15 -28 -40 -93 -30 -36 -68 -88 -84 -116 -15 -27 -33 -50
-39 -50 -24 0 -64 -43 -75 -81 -26 -85 32 -169 117 -169 25 0 54 4 64 10 15 8
20 4 30 -19 18 -46 10 -85 -20 -89 -14 -2 -29 -10 -33 -18 -4 -8 -19 -14 -31
-14 -18 0 -42 -24 -102 -102 -42 -57 -82 -109 -87 -115 -8 -10 86 -13 459 -13
l469 0 68 113 67 112 -245 3 c-209 2 -245 5 -245 17 0 11 -13 15 -54 15 l-53
0 -7 38 c-8 55 -44 103 -99 132 -41 22 -47 29 -47 57 0 17 -4 43 -9 56 -8 21
-3 31 49 82 51 50 61 56 75 45 13 -11 18 -10 34 4 13 12 27 15 45 10 34 -8 54
9 62 51 5 31 -3 47 -99 182 -75 105 -102 151 -95 160 12 14 2 33 -16 33 -8 0
-41 -20 -75 -45z m-68 -507 c50 -26 61 -77 26 -122 -34 -43 -99 -33 -127 21
-18 34 -14 52 17 84 32 31 50 35 84 17z"/>
<path d="M1102 2618 c-17 -17 -15 -44 4 -62 20 -21 30 -20 54 4 28 28 10 69
-30 70 -9 0 -21 -5 -28 -12z"/>
<path d="M1648 3090 c-43 -8 -132 -44 -167 -68 -11 -8 -4 -24 35 -81 l49 -70
225 -1 225 0 78 109 c42 60 77 112 77 115 0 9 -467 5 -522 -4z"/>
<path d="M2167 2988 l-85 -113 322 -5 c285 -4 325 -7 349 -23 44 -29 62 -65
62 -128 0 -65 -18 -98 -75 -136 -33 -23 -37 -23 -361 -23 l-329 0 0 -345 0
-346 120 91 120 91 0 139 0 140 195 0 c273 0 344 19 443 117 61 61 97 132 111
221 33 208 -99 387 -310 422 -35 5 -157 10 -270 10 l-206 0 -86 -112z"/>
<path d="M3545 3090 c-136 -18 -259 -91 -341 -202 -147 -201 -129 -476 43
-640 120 -113 224 -148 442 -148 l136 0 -43 36 c-54 46 -72 81 -72 142 l0 50
-92 4 c-79 3 -101 8 -148 33 -190 103 -184 362 12 470 l53 30 239 5 239 5 79
108 c43 59 78 110 78 112 0 8 -561 3 -625 -5z"/>
<path d="M1488 2742 c-63 -47 -75 -65 -47 -69 19 -4 151 95 144 107 -12 19
-34 10 -97 -38z"/>
<path d="M4005 2593 c-30 -41 -48 -80 -29 -60 4 4 20 -3 35 -14 16 -11 29 -16
29 -11 0 5 -12 17 -26 27 -14 9 -23 19 -21 22 3 2 17 -3 32 -13 25 -16 27 -16
53 3 47 35 38 93 -14 93 -17 0 -34 -14 -59 -47z"/>
<path d="M3946 2513 c-11 -11 -6 -18 25 -37 23 -13 34 -15 42 -7 8 8 8 11 -2
11 -8 0 -11 6 -7 16 3 8 2 12 -4 9 -5 -3 -18 -1 -28 4 -11 6 -22 7 -26 4z"/>
<path d="M3836 2439 c-57 -45 -54 -124 6 -155 66 -34 136 9 144 88 3 39 3 40
-5 11 -19 -72 -60 -103 -116 -89 -33 8 -59 49 -51 80 3 14 18 38 32 55 30 36
27 39 -10 10z"/>
<path d="M3867 2430 c-36 -42 -42 -67 -22 -96 24 -37 72 -30 102 15 31 46 29
62 -12 89 -19 12 -37 22 -39 22 -2 0 -16 -13 -29 -30z"/>
<path d="M4020 2382 c0 -65 -51 -126 -114 -138 -68 -12 -139 43 -139 107 0 36
-3 36 -22 -1 -36 -70 -7 -159 66 -198 80 -43 174 -10 214 75 21 43 25 138 7
168 -10 18 -11 17 -12 -13z"/>
</g>
</svg>
